<svg id="Layer_1" data-name="Layer 1" xmlns="http://www.w3.org/2000/svg" viewBox="0 0 539.71 155.72"><defs><style>.cls-1{fill:#fff;}.cls-2{fill:none;stroke-width:9.41px;}.cls-2,.cls-3{stroke:#fffff;stroke-miterlimit:10;}.cls-3,.cls-4{fill:#f15a24;}.cls-3{stroke-width:0.94px;}</style></defs><title>bo_foodiboo logo</title><path d="M136.87,364.86V358c0-16,8-26.53,24.76-26.53,3.57,0,8.06.32,10,.92v17a28.24,28.24,0,0,0-4.53-.37c-6.34,0-8.72,2.34-8.72,10.63v5.2H172V381H158.37V442.5h-21.5V381" transform="translate(-132.5 -331.22)"/><path d="M326.23,402.53c0,23.49-14.05,40.77-38.65,40.77-24.08,0-38.13-17.18-38.13-40.35,0-24,14.49-40.89,39.15-40.89C311.45,362.06,326.23,378.19,326.23,402.53Zm-55,.15c0,14.95,6.43,23.8,16.78,23.8,10.52,0,16.37-8.86,16.37-23.67,0-16.24-6-23.93-16.67-23.93C277.78,378.88,271.27,386.27,271.27,402.68Z" transform="translate(-132.5 -331.22)"/><path d="M248.73,402c0,23.49-14,40.77-38.65,40.77C186,442.74,172,425.56,172,402.39c0-24,14.49-40.89,39.15-40.89C234,361.5,248.73,377.63,248.73,402Zm-55,.15c0,14.95,6.43,23.8,16.78,23.8,10.52,0,16.37-8.86,16.37-23.67,0-16.24-6-23.93-16.67-23.93C200.28,378.32,193.77,385.71,193.77,402.12Z" transform="translate(-132.5 -331.22)"/><path d="M406.42,332v88.15c0,7.07,0,14.23.15,21.34H385.9c-.43-2.33-.85-6.35-1-8.11-3.75,6.11-10.43,9.9-22,9.9-19.63,0-32.12-15.76-32.12-40,0-23.89,13.28-41.25,35.26-41.25,11.17,0,17.17,3.94,18.89,7.42V332Zm-53.57,70.74c0,15.13,5.89,23.33,16.42,23.33,14.78,0,16.48-12.33,16.48-23.49,0-13.27-1.88-23.32-15.93-23.32C358.54,379.23,352.85,388.05,352.85,402.71Z" transform="translate(-132.5 -331.22)"/><path d="M413.24,331.22h21.5v19.17h-21.5Zm0,31.85h21.5v77.64h-21.5Z" transform="translate(-132.5 -331.22)"/><path d="M441.49,332H463v40.09c3.2-5,9.63-10,22.22-10,21.13,0,31.67,17.46,31.67,39.24,0,22.24-11.44,42-33.76,42-11.54,0-16.63-3.51-20.4-9.16a38.64,38.64,0,0,1-.82,7.36H441.34c.15-8.42.15-17,.15-25.38Zm53.57,69.7c0-12.94-4.81-22.43-16.42-22.43-12.27,0-16.63,8-16.63,23.82,0,13.07,3.87,23.12,16.4,23.12C489.33,426.18,495.06,416.35,495.06,401.67Z" transform="translate(-132.5 -331.22)"/><polygon class="cls-1" points="2 59.72 0 59.72 0 59.72 2 59.72 2 59.72"/><path class="cls-2" d="M667.5,407c0,22.41-18.5,40.58-41.31,40.58a41.53,41.53,0,0,1-29.44-12.12,41.53,41.53,0,0,1-29.44,12.12C544.5,447.59,526,429.42,526,407s18.5-40.57,41.31-40.57a41.53,41.53,0,0,1,29.44,12.12,41.53,41.53,0,0,1,29.44-12.12C649,366.44,667.5,384.61,667.5,407Z" transform="translate(-132.5 -331.22)"/><path class="cls-3" d="M567.79,395.36a13.06,13.06,0,1,0,13.29,13.05A13.17,13.17,0,0,0,567.79,395.36Zm5.69,12.12a3.73,3.73,0,1,1,3.8-3.73A3.77,3.77,0,0,1,573.48,407.48Z" transform="translate(-132.5 -331.22)"/><path class="cls-3" d="M627.61,395.36a13.06,13.06,0,1,0,13.3,13.05A13.17,13.17,0,0,0,627.61,395.36Zm2.85,13.05a3.73,3.73,0,1,1,3.8-3.73A3.77,3.77,0,0,1,630.46,408.41Z" transform="translate(-132.5 -331.22)"/><path class="cls-4" d="M638.21,460.52a45.44,45.44,0,0,1-83.06-1.18C564.77,470.05,580,477,597.22,477,613.78,477,628.55,470.55,638.21,460.52Z" transform="translate(-132.5 -331.22)"/><path class="cls-4" d="M582.51,479.77" transform="translate(-132.5 -331.22)"/><path class="cls-4" d="M576.81,477.9s15.19,3.73,25.64-9.33,13.29.94,13.29.94,1,9.32,0,9.32S576.81,477.9,576.81,477.9Z" transform="translate(-132.5 -331.22)"/></svg>