<svg id="Layer_1" data-name="Layer 1" xmlns="http://www.w3.org/2000/svg" viewBox="0 0 325.19 187.28"><defs><style>.cls-1,.cls-2{fill:none;}.cls-1{stroke:#e84f20;stroke-width:2.63px;}.cls-1,.cls-2,.cls-3{stroke-miterlimit:10;}.cls-2,.cls-3{stroke:#f15a24;}.cls-2{stroke-width:5.55px;}.cls-3,.cls-4{fill:#f15a24;}.cls-3{stroke-width:0.55px;}.cls-5{fill:#fff;}</style></defs><title>bo_sq_foodiboo logo</title><rect class="cls-1" x="120.68" y="1.32" width="107.19" height="107.19" rx="26.34"/><path class="cls-2" d="M451.88,337.82a24.15,24.15,0,0,1-24.36,23.92,24.49,24.49,0,0,1-17.36-7.14,24.49,24.49,0,0,1-17.36,7.14,23.93,23.93,0,1,1,0-47.85A24.5,24.5,0,0,1,410.16,321a24.5,24.5,0,0,1,17.36-7.15A24.15,24.15,0,0,1,451.88,337.82Z" transform="translate(-235.88 -294.51)"/><path class="cls-3" d="M393.08,331a7.7,7.7,0,1,0,7.84,7.69A7.76,7.76,0,0,0,393.08,331Zm3.36,7.14a2.2,2.2,0,1,1,2.24-2.2A2.22,2.22,0,0,1,396.44,338.09Z" transform="translate(-235.88 -294.51)"/><path class="cls-3" d="M428.36,331a7.7,7.7,0,1,0,7.84,7.69A7.76,7.76,0,0,0,428.36,331Zm1.68,7.69a2.2,2.2,0,1,1,2.24-2.2A2.22,2.22,0,0,1,430,338.64Z" transform="translate(-235.88 -294.51)"/><path class="cls-4" d="M434.61,369.37a26.79,26.79,0,0,1-49-.7c5.67,6.32,14.67,10.4,24.81,10.4C420.2,379.07,428.91,375.28,434.61,369.37Z" transform="translate(-235.88 -294.51)"/><path class="cls-4" d="M401.76,380.72" transform="translate(-235.88 -294.51)"/><path class="cls-4" d="M398.4,379.62a15.51,15.51,0,0,0,15.12-5.5c6.16-7.7,7.84.55,7.84.55s.56,5.5,0,5.5S398.4,379.62,398.4,379.62Z" transform="translate(-235.88 -294.51)"/><path d="M238.5,434.93v-4.08c0-9.58,4.75-15.85,14.79-15.85a26.5,26.5,0,0,1,6,.55v10.14a16.84,16.84,0,0,0-2.71-.22c-3.79,0-5.21,1.39-5.21,6.35v3.11h8.11v9.65h-8.11v36.74H238.5V444.58" transform="translate(-235.88 -294.51)"/><path d="M351.65,457.43c0,14-8.4,24.36-23.1,24.36-14.39,0-22.79-10.26-22.79-24.11,0-14.32,8.66-24.43,23.39-24.43C342.81,433.25,351.65,442.89,351.65,457.43Zm-32.85.09c0,8.93,3.84,14.22,10,14.22s9.78-5.29,9.78-14.14c0-9.71-3.56-14.3-10-14.3C322.69,443.3,318.8,447.71,318.8,457.52Z" transform="translate(-235.88 -294.51)"/><path d="M305.34,457.1c0,14-8.4,24.36-23.1,24.36-14.39,0-22.78-10.27-22.78-24.12,0-14.31,8.66-24.43,23.39-24.43C296.5,432.91,305.34,442.55,305.34,457.1Zm-32.85.09c0,8.93,3.84,14.22,10,14.22s9.78-5.3,9.78-14.14c0-9.71-3.56-14.3-10-14.3C276.38,443,272.49,447.38,272.49,457.19Z" transform="translate(-235.88 -294.51)"/><path d="M399.56,415.26v52.68c0,4.23,0,8.51.09,12.75H387.29c-.25-1.39-.5-3.79-.58-4.85-2.24,3.66-6.23,5.93-13.16,5.93-11.73,0-19.2-9.43-19.2-23.9,0-14.27,7.94-24.65,21.07-24.65,6.68,0,10.26,2.36,11.29,4.44v-22.4Zm-32,42.28c0,9,3.53,13.94,9.82,13.94,8.83,0,9.85-7.37,9.85-14,0-7.93-1.13-13.93-9.52-13.93C371,443.51,367.54,448.78,367.54,457.54Z" transform="translate(-235.88 -294.51)"/><path d="M403.63,414.82h12.84v11.45H403.63Zm0,19h12.84v46.39H403.63Z" transform="translate(-235.88 -294.51)"/><path d="M420.51,415.27h12.84v24c1.92-3,5.76-6,13.28-6,12.63,0,18.93,10.43,18.93,23.45,0,13.29-6.84,25.1-20.17,25.1-6.9,0-9.94-2.1-12.19-5.48a22.6,22.6,0,0,1-.5,4.4H420.42c.09-5,.09-10.14.09-15.17Zm32,41.65c0-7.74-2.87-13.41-9.81-13.41-7.34,0-9.94,4.78-9.94,14.23,0,7.82,2.31,13.82,9.8,13.82C449.09,471.56,452.52,465.69,452.52,456.92Z" transform="translate(-235.88 -294.51)"/><polygon class="cls-5" points="1.2 156 0 156 0 156 1.2 156 1.2 156"/><path d="M561.07,457.1c0,14-8.4,24.36-23.1,24.36-14.38,0-22.78-10.27-22.78-24.12,0-14.31,8.66-24.43,23.39-24.43C552.24,432.91,561.07,442.55,561.07,457.1Zm-32.85.09c0,8.93,3.85,14.22,10,14.22s9.79-5.3,9.79-14.14c0-9.71-3.57-14.3-10-14.3C532.12,443,528.22,447.38,528.22,457.19Z" transform="translate(-235.88 -294.51)"/><path d="M513.27,457.1c0,14-8.4,24.36-23.1,24.36-14.38,0-22.78-10.27-22.78-24.12,0-14.31,8.66-24.43,23.39-24.43C504.44,432.91,513.27,442.55,513.27,457.1Zm-32.85.09c0,8.93,3.85,14.22,10,14.22s9.79-5.3,9.79-14.14c0-9.71-3.57-14.3-10-14.3C484.32,443,480.42,447.38,480.42,457.19Z" transform="translate(-235.88 -294.51)"/></svg>