<svg id="Layer_1" data-name="Layer 1" xmlns="http://www.w3.org/2000/svg" viewBox="0 0 535.33 155.72"><defs><style>.cls-1{fill:#fff;}.cls-2{fill:none;stroke:#fff;stroke-miterlimit:10;stroke-width:9.41px;}</style></defs><title>w_foodiboo logo</title><path class="cls-1" d="M134.69,364.86V358c0-16,7.95-26.53,24.75-26.53,3.57,0,8.06.32,10,.92v17a28.24,28.24,0,0,0-4.53-.37c-6.34,0-8.72,2.34-8.72,10.63v5.2h13.58V381H156.18V442.5H134.69V381" transform="translate(-134.69 -331.22)"/><path class="cls-1" d="M324.05,402.53c0,23.49-14.06,40.77-38.65,40.77-24.08,0-38.13-17.18-38.13-40.35,0-24,14.49-40.89,39.14-40.89C309.26,362.06,324.05,378.19,324.05,402.53Zm-55,.15c0,14.95,6.43,23.8,16.78,23.8,10.52,0,16.37-8.86,16.37-23.67,0-16.24-6-23.93-16.67-23.93C275.59,378.88,269.08,386.27,269.08,402.68Z" transform="translate(-134.69 -331.22)"/><path class="cls-1" d="M246.55,402c0,23.49-14.06,40.77-38.66,40.77-24.07,0-38.13-17.18-38.13-40.35,0-24,14.49-40.89,39.15-40.89C231.76,361.5,246.55,377.63,246.55,402Zm-55,.15c0,14.95,6.43,23.8,16.78,23.8,10.52,0,16.37-8.86,16.37-23.67,0-16.24-6-23.93-16.67-23.93C198.09,378.32,191.58,385.71,191.58,402.12Z" transform="translate(-134.69 -331.22)"/><path class="cls-1" d="M404.23,332v88.15c0,7.07,0,14.23.15,21.34H383.71c-.43-2.33-.84-6.35-1-8.11-3.75,6.11-10.44,9.9-22,9.9-19.64,0-32.13-15.76-32.13-40,0-23.89,13.28-41.25,35.26-41.25,11.17,0,17.17,3.94,18.9,7.42V332Zm-53.57,70.74c0,15.13,5.9,23.33,16.42,23.33,14.78,0,16.48-12.33,16.48-23.49,0-13.27-1.87-23.32-15.92-23.32C356.35,379.23,350.66,388.05,350.66,402.71Z" transform="translate(-134.69 -331.22)"/><path class="cls-1" d="M411.05,331.22h21.5v19.17h-21.5Zm0,31.85h21.5v77.64h-21.5Z" transform="translate(-134.69 -331.22)"/><path class="cls-1" d="M439.31,332H460.8v40.09c3.21-5,9.63-10,22.22-10,21.13,0,31.67,17.46,31.67,39.24,0,22.24-11.43,42-33.75,42-11.55,0-16.63-3.51-20.4-9.16a38.59,38.59,0,0,1-.83,7.36H439.16c.15-8.42.15-17,.15-25.38Zm53.57,69.7c0-12.94-4.81-22.43-16.42-22.43-12.28,0-16.64,8-16.64,23.82,0,13.07,3.87,23.12,16.4,23.12C487.14,426.18,492.88,416.35,492.88,401.67Z" transform="translate(-134.69 -331.22)"/><path class="cls-2" d="M665.31,407c0,22.41-18.5,40.58-41.31,40.58a41.55,41.55,0,0,1-29.44-12.12,41.53,41.53,0,0,1-29.44,12.12c-22.81,0-41.31-18.17-41.31-40.58s18.5-40.57,41.31-40.57a41.53,41.53,0,0,1,29.44,12.12A41.55,41.55,0,0,1,624,366.44C646.81,366.44,665.31,384.61,665.31,407Z" transform="translate(-134.69 -331.22)"/><path class="cls-1" d="M565.6,395.36a13.06,13.06,0,1,0,13.29,13.05A13.17,13.17,0,0,0,565.6,395.36Zm5.69,12.12a3.73,3.73,0,1,1,3.8-3.73A3.77,3.77,0,0,1,571.29,407.48Z" transform="translate(-134.69 -331.22)"/><path class="cls-1" d="M625.42,395.36a13.06,13.06,0,1,0,13.3,13.05A13.17,13.17,0,0,0,625.42,395.36Zm2.85,13.05a3.73,3.73,0,1,1,3.8-3.73A3.77,3.77,0,0,1,628.27,408.41Z" transform="translate(-134.69 -331.22)"/><path class="cls-1" d="M636,460.52A45.45,45.45,0,0,1,553,459.34C562.58,470.05,577.85,477,595,477,611.59,477,626.37,470.55,636,460.52Z" transform="translate(-134.69 -331.22)"/><path class="cls-1" d="M580.32,479.77" transform="translate(-134.69 -331.22)"/><path class="cls-1" d="M574.62,477.9s15.19,3.73,25.64-9.33,13.3.94,13.3.94,1,9.32,0,9.32S574.62,477.9,574.62,477.9Z" transform="translate(-134.69 -331.22)"/></svg>